{"title":"The Last Rites of Ransom Pride.2009.BRRip.H264.Feel-Free","uid":5871191,"size":1349061276,"categoryP":"video","categoryS":"movies","magnet":"?xt=urn:btih:0be0f5cfb517f3fc1b6a4ffbd6f6a60bdb8491b6&amp;dn=The+Last+Rites+of+Ransom+Pride.2009.BRRip.H264.Feel-Free&amp;tr=udp%3A%2F%2Ftracker.openbittorrent.com%3A80&amp;tr=udp%3A%2F%2Fopen.demonii.com%3A1337&amp;tr=udp%3A%2F%2Ftracker.coppersurfer.tk%3A6969&amp;tr=udp%3A%2F%2Fexodus.desync.com%3A6969","seeders":1,"leechers":1,"uploader":"neon","files":-1,"time":1286457119,"description":"A western centered on a woman trying to bring her outlaw lover home for his burial.\n\nGenre:Drama | Western\nLanguage:English\n &lt;a href=&quot; http://www.imdb.com/title/tt1268970/&quot; rel=&quot;nofollow&quot; target=&quot;_NEW&quot;&gt; http://www.imdb.com/title/tt1268970/&lt;/a&gt;\nSource:BluRay x264-aAF\nSubtitles:Engleza where needed\n &lt;a href=&quot;\nhttp://www.starshare.ro/bitbucket/vlcsnap2010-10-07-12h59m45s198.jpg&quot; rel=&quot;nofollow&quot; target=&quot;_NEW&quot;&gt;\nhttp://www.starshare.ro/bitbucket/vlcsnap2010-10-07-12h59m45s198.jpg&lt;/a&gt; &lt;a href=&quot;\nhttp://www.starshare.ro/bitbucket/vlcsnap2010-10-07-12h59m56s46.jpg&quot; rel=&quot;nofollow&quot; target=&quot;_NEW&quot;&gt;\nhttp://www.starshare.ro/bitbucket/vlcsnap2010-10-07-12h59m56s46.jpg&lt;/a&gt; &lt;a href=&quot;\nhttp://www.starshare.ro/bitbucket/vlcsnap2010-10-07-13h00m04s140.jpg&quot; rel=&quot;nofollow&quot; target=&quot;_NEW&quot;&gt;\nhttp://www.starshare.ro/bitbucket/vlcsnap2010-10-07-13h00m04s140.jpg&lt;/a&gt; &lt;a href=&quot;\nhttp://www.starshare.ro/bitbucket/vlcsnap2010-10-07-13h00m11s202.jpg&quot; rel=&quot;nofollow&quot; target=&quot;_NEW&quot;&gt;\nhttp://www.starshare.ro/bitbucket/vlcsnap2010-10-07-13h00m11s202.jpg&lt;/a&gt;\n &lt;a href=&quot;\nhttp://www.youtube.com/watch?v=6j-kXAz5DQ0&amp;feature=player_embedded&quot; rel=&quot;nofollow&quot; target=&quot;_NEW&quot;&gt;\nhttp://www.youtube.com/watch?v=6j-kXAz5DQ0&amp;feature=player_embedded&lt;/a&gt;\n\nGeneral\nComplete name :The.Last.Rites.of.Ransom.Pride.2009.BRRip.H264.Feel-Free\nFormat : MPEG-4\nFormat profile : Base Media\nCodec ID : isom\nFile size : 1.26 GiB\nDuration : 1h 22mn\nOverall bit rate : 2 189 Kbps\nVideo #1\nCodec ID : avc1\nCodec ID/Info : Advanced Video Coding\nDuration : 1h 22mn\nBit rate mode : Variable\nBit rate : 2 019 Kbps\nWidth : 720 pixels\nHeight : 384 pixels\nDisplay aspect ratio : 1.875\nFrame rate mode : Constant\nFrame rate : 23.976 fps\nResolution : 24 bits\nColorimetry : 4:2:0\nScan type : Progressive\nBits/(Pixel*Frame) : 0.305\nStream size : 1.16 GiB (92%)\nAudio #2\nID : 2\nFormat : AAC\nFormat/Info : Advanced Audio Codec\nFormat version : Version 4\nFormat profile : LC\nFormat settings, SBR : No\nCodec ID : 40\nDuration : 1h 22mn\nBit rate mode : Variable\nBit rate : 165 Kbps\nChannel(s) : 2 channels\nChannel positions : L R\nSampling rate : 48.0 KHz\nResolution : 16 bits\nStream size : 97.2 MiB (8%)","torrent":{"xt":"urn:btih:0be0f5cfb517f3fc1b6a4ffbd6f6a60bdb8491b6","amp;dn":"The+Last+Rites+of+Ransom+Pride.2009.BRRip.H264.Feel-Free","amp;tr":["udp%3A%2F%2Ftracker.openbittorrent.com%3A80","udp%3A%2F%2Fopen.demonii.com%3A1337","udp%3A%2F%2Ftracker.coppersurfer.tk%3A6969","udp%3A%2F%2Fexodus.desync.com%3A6969"],"infoHash":"0be0f5cfb517f3fc1b6a4ffbd6f6a60bdb8491b6","infoHashBuffer":{"type":"Buffer","data":[11,224,245,207,181,23,243,252,27,106,79,251,214,246,166,11,219,132,145,182]},"announce":[],"urlList":[]}}